  0
SECTION
  2
HEADER
  9
$ACADVER
  1
AC1014
  9
$HANDSEED
  5
FFFF
  9
$MEASUREMENT
 70
     1
  0
ENDSEC
  0
SECTION
  2
TABLES
  0
TABLE
  2
VPORT
  5
8
330
0
100
AcDbSymbolTable
 70
     4
  0
VPORT
  5
2E
330
8
100
AcDbSymbolTableRecord
100
AcDbViewportTableRecord
  2
*ACTIVE
 70
     0
 10
0.0
 20
0.0
 11
1.0
 21
1.0
 12
210.0
 22
148.5
 13
0.0
 23
0.0
 14
10.0
 24
10.0
 15
10.0
 25
10.0
 16
0.0
 26
0.0
 36
1.0
 17
0.0
 27
0.0
 37
0.0
 40
341.0
 41
1.24
 42
50.0
 43
0.0
 44
0.0
 50
0.0
 51
0.0
 71
     0
 72
   100
 73
     1
 74
     3
 75
     0
 76
     0
 77
     0
 78
     0
  0
ENDTAB
  0
TABLE
  2
LTYPE
  5
5
330
0
100
AcDbSymbolTable
 70
     1
  0
LTYPE
  5
14
330
5
100
AcDbSymbolTableRecord
100
AcDbLinetypeTableRecord
  2
BYBLOCK
 70
     0
  3

 72
    65
 73
     0
 40
0.0
  0
LTYPE
  5
15
330
5
100
AcDbSymbolTableRecord
100
AcDbLinetypeTableRecord
  2
BYLAYER
 70
     0
  3

 72
    65
 73
     0
 40
0.0
  0
LTYPE
  5
16
330
5
100
AcDbSymbolTableRecord
100
AcDbLinetypeTableRecord
  2
CONTINUOUS
 70
     0
  3
Solid line
 72
    65
 73
     0
 40
0.0
  0
ENDTAB
  0
TABLE
  2
LAYER
  5
2
100
AcDbSymbolTable
 70
3
  0
LAYER
  5
50
100
AcDbSymbolTableRecord
100
AcDbLayerTableRecord
  2
0
 70
0
  6
CONTINUOUS
  0
LAYER
  5
51
100
AcDbSymbolTableRecord
100
AcDbLayerTableRecord
  2
PI
 70
0
  6
CONTINUOUS
  0
LAYER
  5
52
100
AcDbSymbolTableRecord
100
AcDbLayerTableRecord
  2
LIG
 70
0
  6
CONTINUOUS
  0
ENDTAB
  0
TABLE
  2
STYLE
  5
3
330
0
100
AcDbSymbolTable
 70
     1
  0
STYLE
  5
11
330
3
100
AcDbSymbolTableRecord
100
AcDbTextStyleTableRecord
  2
STANDARD
 70
     0
 40
0.0
 41
1.0
 50
0.0
 71
     0
 42
2.5
  3
txt
  4

  0
ENDTAB
  0
TABLE
  2
VIEW
  5
6
330
0
100
AcDbSymbolTable
 70
     0
  0
ENDTAB
  0
TABLE
  2
UCS
  5
7
330
0
100
AcDbSymbolTable
 70
     0
  0
ENDTAB
  0
TABLE
  2
APPID
  5
9
330
0
100
AcDbSymbolTable
 70
     2
  0
APPID
  5
12
330
9
100
AcDbSymbolTableRecord
100
AcDbRegAppTableRecord
  2
ACAD
 70
     0
  0
ENDTAB
  0
TABLE
  2
DIMSTYLE
  5
A
330
0
100
AcDbSymbolTable
 70
     1
  0
DIMSTYLE
105
27
330
A
100
AcDbSymbolTableRecord
100
AcDbDimStyleTableRecord
  2
ISO-25
 70
     0
  3

  4

  5

  6

  7

 40
1.0
 41
2.5
 42
0.625
 43
3.75
 44
1.25
 45
0.0
 46
0.0
 47
0.0
 48
0.0
140
2.5
141
2.5
142
0.0
143
0.03937007874016
144
1.0
145
0.0
146
1.0
147
0.625
 71
     0
 72
     0
 73
     0
 74
     0
 75
     0
 76
     0
 77
     1
 78
     8
170
     0
171
     3
172
     1
173
     0
174
     0
175
     0
176
     0
177
     0
178
     0
270
     2
271
     2
272
     2
273
     2
274
     3
340
11
275
     0
280
     0
281
     0
282
     0
283
     0
284
     8
285
     0
286
     0
287
     3
288
     0
  0
ENDTAB
  0
TABLE
  2
BLOCK_RECORD
  5
1
330
0
100
AcDbSymbolTable
 70
     1
  0
BLOCK_RECORD
  5
1F
330
1
100
AcDbSymbolTableRecord
100
AcDbBlockTableRecord
  2
*MODEL_SPACE
  0
BLOCK_RECORD
  5
1B
330
1
100
AcDbSymbolTableRecord
100
AcDbBlockTableRecord
  2
*PAPER_SPACE
  0
ENDTAB
  0
ENDSEC
  0
SECTION
  2
BLOCKS
  0
BLOCK
  5
20
330
1F
100
AcDbEntity
  8
0
100
AcDbBlockBegin
  2
*MODEL_SPACE
 70
     0
 10
0.0
 20
0.0
 30
0.0
  3
*MODEL_SPACE
  1

  0
ENDBLK
  5
21
330
1F
100
AcDbEntity
  8
0
100
AcDbBlockEnd
  0
BLOCK
  5
1C
330
1B
100
AcDbEntity
 67
     1
  8
0
100
AcDbBlockBegin
  2
*PAPER_SPACE
  1

  0
ENDBLK
  5
1D
330
1B
100
AcDbEntity
 67
     1
  8
0
100
AcDbBlockEnd
  0
ENDSEC
  0
SECTION
  2
ENTITIES
  0
SPLINE
  5
100
100
AcDbEntity
  8
PI
 62
7
100
AcDbSpline
 70
0
 71
3
 72
82
 73
78
 74
76
 40
0.000000
 40
0.000000
 40
0.000000
 40
0.000000
 40
1.131231
 40
2.238122
 40
3.369348
 40
3.538922
 40
3.728716
 40
3.898256
 40
5.029487
 40
6.136377
 40
7.267604
 40
7.437174
 40
7.626962
 40
7.796494
 40
7.835679
 40
7.914690
 40
8.040759
 40
9.620043
 40
11.194490
 40
12.773774
 40
12.943421
 40
13.133245
 40
13.302893
 40
14.502783
 40
15.700537
 40
16.900427
 40
17.026324
 40
17.136762
 40
17.264530
 40
18.353931
 40
19.421356
 40
20.510755
 40
20.680317
 40
20.870101
 40
21.039637
 40
22.170869
 40
23.277759
 40
24.408986
 40
24.578559
 40
24.768352
 40
24.937889
 40
25.757861
 40
26.567878
 40
27.387849
 40
27.516055
 40
27.627403
 40
27.753722
 40
30.016803
 40
32.265865
 40
34.528945
 40
34.698596
 40
34.888424
 40
35.058075
 40
37.165316
 40
39.261196
 40
41.368439
 40
41.501367
 40
41.626301
 40
41.761081
 40
42.467659
 40
43.167732
 40
43.874311
 40
44.043833
 40
44.233590
 40
44.403117
 40
45.534177
 40
46.640907
 40
47.771962
 40
47.941535
 40
48.131328
 40
48.300865
 40
49.225210
 40
50.135597
 40
51.059940
 40
51.201083
 40
51.304863
 40
51.334075
 40
51.334075
 40
51.334075
 40
51.334075
 10
2.323335
 20
296.986227
 30
0.0
 10
1.950347
 20
296.895375
 30
0.0
 10
1.212395
 20
296.715626
 30
0.0
 10
0.397302
 20
295.866566
 30
0.0
 10
0.116919
 20
295.084499
 30
0.0
 10
0.089073
 20
294.588131
 30
0.0
 10
0.089069
 20
294.411706
 30
0.0
 10
0.116918
 20
293.915629
 30
0.0
 10
0.396780
 20
293.125199
 30
0.0
 10
1.213980
 20
292.312634
 30
0.0
 10
2.002118
 20
292.021486
 30
0.0
 10
2.499650
 20
292.005443
 30
0.0
 10
2.673620
 20
291.985237
 30
0.0
 10
2.812727
 20
292.046309
 30
0.0
 10
2.899127
 20
291.981446
 30
0.0
 10
2.859335
 20
291.890387
 30
0.0
 10
2.627004
 20
291.381799
 30
0.0
 10
2.109827
 20
290.366098
 30
0.0
 10
1.724160
 20
288.842534
 30
0.0
 10
1.596842
 20
287.734458
 30
0.0
 10
1.588273
 20
287.088291
 30
0.0
 10
1.589011
 20
286.911915
 30
0.0
 10
1.600074
 20
286.392121
 30
0.0
 10
1.689644
 20
285.541683
 30
0.0
 10
1.922311
 20
284.350987
 30
0.0
 10
2.259881
 20
283.597390
 30
0.0
 10
2.392177
 20
283.117314
 30
0.0
 10
2.321651
 20
283.000826
 30
0.0
 10
1.881018
 20
282.883269
 30
0.0
 10
1.146682
 20
282.658038
 30
0.0
 10
0.380498
 20
281.827309
 30
0.0
 10
0.116652
 20
281.070856
 30
0.0
 10
0.089176
 20
280.588459
 30
0.0
 10
0.089096
 20
280.412042
 30
0.0
 10
0.116866
 20
279.915930
 30
0.0
 10
0.396912
 20
279.126460
 30
0.0
 10
1.213590
 20
278.309737
 30
0.0
 10
2.003061
 20
278.029709
 30
0.0
 10
2.499190
 20
278.001872
 30
0.0
 10
2.675599
 20
278.001907
 30
0.0
 10
3.068395
 20
278.024113
 30
0.0
 10
3.654328
 20
278.193685
 30
0.0
 10
4.357617
 20
278.653853
 30
0.0
 10
4.671659
 20
279.147004
 30
0.0
 10
4.874447
 20
279.449161
 30
0.0
 10
5.007629
 20
279.479720
 30
0.0
 10
5.729229
 20
279.002400
 30
0.0
 10
6.907385
 20
278.039446
 30
0.0
 10
9.075043
 20
277.253314
 30
0.0
 10
10.625023
 20
277.015818
 30
0.0
 10
11.499221
 20
277.001137
 30
0.0
 10
11.675595
 20
277.001133
 30
0.0
 10
12.497861
 20
277.014633
 30
0.0
 10
13.945512
 20
277.227128
 30
0.0
 10
15.978679
 20
277.899976
 30
0.0
 10
17.112727
 20
278.780863
 30
0.0
 10
17.817011
 20
279.178707
 30
0.0
 10
17.957758
 20
279.152857
 30
0.0
 10
18.181832
 20
278.912673
 30
0.0
 10
18.500992
 20
278.509169
 30
0.0
 10
19.130871
 20
278.159020
 30
0.0
 10
19.644434
 20
278.022038
 30
0.0
 10
19.999496
 20
278.001967
 30
0.0
 10
20.175865
 20
278.001898
 30
0.0
 10
20.671914
 20
278.029798
 30
0.0
 10
21.461202
 20
278.309908
 30
0.0
 10
22.277721
 20
279.126550
 30
0.0
 10
22.557660
 20
279.915915
 30
0.0
 10
22.585514
 20
280.411980
 30
0.0
 10
22.585463
 20
280.588399
 30
0.0
 10
22.561397
 20
281.015880
 30
0.0
 10
22.355188
 20
281.668748
 30
0.0
 10
21.796626
 20
282.427025
 30
0.0
 10
21.174130
 20
282.729955
 30
0.0
 10
20.847755
 20
282.900772
 30
0.0
 10
20.745943
 20
282.943776
 30
0.0
 10
20.745159
 20
282.989730
 30
0.0
 10
20.744987
 20
282.999824
 30
0.0
 11
2.323335
 21
296.986227
 31
0.0
 11
1.254573
 21
296.615509
 31
0.0
 11
0.471870
 21
295.832832
 31
0.0
 11
0.101116
 21
294.764088
 31
0.0
 11
0.090945
 21
294.594820
 31
0.0
 11
0.090943
 21
294.405026
 31
0.0
 11
0.101106
 21
294.235790
 31
0.0
 11
0.471824
 21
293.167029
 31
0.0
 11
1.254501
 21
292.384325
 31
0.0
 11
2.323246
 21
292.013571
 31
0.0
 11
2.492514
 21
292.003465
 31
0.0
 11
2.682301
 21
292.003656
 31
0.0
 11
2.851509
 21
292.014139
 31
0.0
 11
2.881151
 21
291.988510
 31
0.0
 11
2.867997
 21
291.910601
 31
0.0
 11
2.815962
 21
291.795772
 31
0.0
 11
2.169328
 21
290.354937
 31
0.0
 11
1.758490
 21
288.835039
 31
0.0
 11
1.591169
 21
287.264643
 31
0.0
 11
1.588828
 21
287.095012
 31
0.0
 11
1.589611
 21
286.905190
 31
0.0
 11
1.593349
 21
286.735583
 31
0.0
 11
1.707604
 21
285.541145
 31
0.0
 11
1.963515
 21
284.371049
 31
0.0
 11
2.358312
 21
283.237969
 31
0.0
 11
2.374432
 21
283.113108
 31
0.0
 11
2.317932
 21
283.018218
 31
0.0
 11
2.200325
 21
282.968285
 31
0.0
 11
1.186613
 21
282.569306
 31
0.0
 11
0.450455
 21
281.796346
 31
0.0
 11
0.101363
 21
280.764394
 31
0.0
 11
0.091065
 21
280.595146
 31
0.0
 11
0.090976
 21
280.405361
 31
0.0
 11
0.101108
 21
280.236128
 31
0.0
 11
0.471826
 21
279.167366
 31
0.0
 11
1.254502
 21
278.384663
 31
0.0
 11
2.323247
 21
278.013908
 31
0.0
 11
2.492516
 21
278.003749
 31
0.0
 11
2.682308
 21
278.003790
 31
0.0
 11
2.851534
 21
278.014056
 31
0.0
 11
3.641672
 21
278.233230
 31
0.0
 11
4.311107
 21
278.689282
 31
0.0
 11
4.804281
 21
279.344364
 31
0.0
 11
4.889518
 21
279.440132
 31
0.0
 11
4.998243
 21
279.464155
 31
0.0
 11
5.112428
 21
279.410134
 31
0.0
 11
6.985794
 21
278.140474
 31
0.0
 11
9.083032
 21
277.328148
 31
0.0
 11
11.322869
 21
277.004633
 31
0.0
 11
11.492495
 21
277.001697
 31
0.0
 11
11.682322
 21
277.001682
 31
0.0
 11
11.851948
 21
277.004574
 31
0.0
 11
13.939908
 21
277.288988
 31
0.0
 11
15.911627
 21
277.999647
 31
0.0
 11
17.700927
 21
279.112695
 31
0.0
 11
17.823550
 21
279.164014
 31
0.0
 11
17.946622
 21
279.142523
 31
0.0
 11
18.048701
 21
279.054515
 31
0.0
 11
18.534640
 21
278.541567
 31
0.0
 11
19.138605
 21
278.187549
 31
0.0
 11
19.823579
 21
278.014158
 31
0.0
 11
19.992787
 21
278.003844
 31
0.0
 11
20.182544
 21
278.003785
 31
0.0
 11
20.351766
 21
278.013955
 31
0.0
 11
21.420302
 21
278.384800
 31
0.0
 11
22.202811
 21
279.167444
 31
0.0
 11
22.573471
 21
280.236040
 31
0.0
 11
22.583633
 21
280.405308
 31
0.0
 11
22.583591
 21
280.595101
 31
0.0
 11
22.573337
 21
280.764328
 31
0.0
 11
22.307388
 21
281.649587
 31
0.0
 11
21.748585
 21
282.368297
 31
0.0
 11
20.956189
 21
282.844237
 31
0.0
 11
20.829821
 21
282.907107
 31
0.0
 11
20.747849
 21
282.970753
 31
0.0
 11
20.744987
 21
282.999824
 31
0.0
  0
LWPOLYLINE
  5
101
100
AcDbEntity
  8
PI
 62
7
100
AcDbPolyline
 90
2
 70
0
 10
20.744987
 20
282.999824
 30
0.0
 10
32.303972
 20
282.999824
 30
0.0
  0
SPLINE
  5
102
100
AcDbEntity
  8
PI
 62
7
100
AcDbSpline
 70
0
 71
3
 72
13
 73
9
 74
7
 40
0.000000
 40
0.000000
 40
0.000000
 40
0.000000
 40
0.069261
 40
0.137949
 40
0.207211
 40
0.276472
 40
0.345160
 40
0.414422
 40
0.414422
 40
0.414422
 40
0.414422
 10
32.303972
 20
282.999824
 30
0.0
 10
32.327127
 20
282.998060
 30
0.0
 10
32.373244
 20
282.994547
 30
0.0
 10
32.437761
 20
282.966786
 30
0.0
 10
32.493281
 20
282.924550
 30
0.0
 10
32.535518
 20
282.869029
 30
0.0
 10
32.563279
 20
282.804513
 30
0.0
 10
32.566792
 20
282.758396
 30
0.0
 10
32.568556
 20
282.735241
 30
0.0
 11
32.303972
 21
282.999824
 31
0.0
 11
32.372638
 21
282.990759
 31
0.0
 11
32.436097
 21
282.964474
 31
0.0
 11
32.491061
 21
282.922330
 31
0.0
 11
32.533205
 21
282.867366
 31
0.0
 11
32.559491
 21
282.803907
 31
0.0
 11
32.568556
 21
282.735241
 31
0.0
  0
LWPOLYLINE
  5
103
100
AcDbEntity
  8
PI
 62
7
100
AcDbPolyline
 90
2
 70
0
 10
32.568556
 20
282.735241
 30
0.0
 10
32.568556
 20
281.264529
 30
0.0
  0
SPLINE
  5
104
100
AcDbEntity
  8
PI
 62
7
100
AcDbSpline
 70
0
 71
3
 72
10
 73
6
 74
4
 40
0.000000
 40
0.000000
 40
0.000000
 40
0.000000
 40
0.138340
 40
0.272576
 40
0.410916
 40
0.410916
 40
0.410916
 40
0.410916
 10
32.568556
 20
281.264529
 30
0.0
 10
32.575833
 20
281.218167
 30
0.0
 10
32.590172
 20
281.126819
 30
0.0
 10
32.695429
 20
281.021562
 30
0.0
 10
32.786777
 20
281.007223
 30
0.0
 10
32.833139
 20
280.999946
 30
0.0
 11
32.568556
 21
281.264529
 31
0.0
 11
32.604679
 21
281.130989
 31
0.0
 11
32.699599
 21
281.036069
 31
0.0
 11
32.833139
 21
280.999946
 31
0.0
  0
LWPOLYLINE
  5
105
100
AcDbEntity
  8
PI
 62
7
100
AcDbPolyline
 90
2
 70
0
 10
32.833139
 20
280.999946
 30
0.0
 10
35.303790
 20
280.999946
 30
0.0
  0
SPLINE
  5
106
100
AcDbEntity
  8
PI
 62
7
100
AcDbSpline
 70
0
 71
3
 72
10
 73
6
 74
4
 40
0.000000
 40
0.000000
 40
0.000000
 40
0.000000
 40
0.138340
 40
0.272576
 40
0.410916
 40
0.410916
 40
0.410916
 40
0.410916
 10
35.303790
 20
280.999946
 30
0.0
 10
35.350152
 20
281.007223
 30
0.0
 10
35.441500
 20
281.021562
 30
0.0
 10
35.546757
 20
281.126819
 30
0.0
 10
35.561096
 20
281.218167
 30
0.0
 10
35.568373
 20
281.264529
 30
0.0
 11
35.303790
 21
280.999946
 31
0.0
 11
35.437330
 21
281.036069
 31
0.0
 11
35.532250
 21
281.130989
 31
0.0
 11
35.568373
 21
281.264529
 31
0.0
  0
LWPOLYLINE
  5
107
100
AcDbEntity
  8
PI
 62
7
100
AcDbPolyline
 90
2
 70
0
 10
35.568373
 20
281.264529
 30
0.0
 10
35.568373
 20
292.735661
 30
0.0
  0
SPLINE
  5
108
100
AcDbEntity
  8
PI
 62
7
100
AcDbSpline
 70
0
 71
3
 72
13
 73
9
 74
7
 40
0.000000
 40
0.000000
 40
0.000000
 40
0.000000
 40
0.069262
 40
0.137950
 40
0.207211
 40
0.276473
 40
0.345161
 40
0.414423
 40
0.414423
 40
0.414423
 40
0.414423
 10
35.568373
 20
292.735661
 30
0.0
 10
35.566609
 20
292.758815
 30
0.0
 10
35.563096
 20
292.804933
 30
0.0
 10
35.535335
 20
292.869450
 30
0.0
 10
35.493098
 20
292.924970
 30
0.0
 10
35.437577
 20
292.967206
 30
0.0
 10
35.373060
 20
292.994968
 30
0.0
 10
35.326943
 20
292.998480
 30
0.0
 10
35.303788
 20
293.000244
 30
0.0
 11
35.568373
 21
292.735661
 31
0.0
 11
35.559308
 21
292.804327
 31
0.0
 11
35.533022
 21
292.867786
 31
0.0
 11
35.490878
 21
292.922750
 31
0.0
 11
35.435914
 21
292.964894
 31
0.0
 11
35.372454
 21
292.991180
 31
0.0
 11
35.303788
 21
293.000244
 31
0.0
  0
LWPOLYLINE
  5
109
100
AcDbEntity
  8
PI
 62
7
100
AcDbPolyline
 90
2
 70
0
 10
35.303788
 20
293.000244
 30
0.0
 10
32.833138
 20
293.000244
 30
0.0
  0
SPLINE
  5
10a
100
AcDbEntity
  8
PI
 62
7
100
AcDbSpline
 70
0
 71
3
 72
10
 73
6
 74
4
 40
0.000000
 40
0.000000
 40
0.000000
 40
0.000000
 40
0.138340
 40
0.272576
 40
0.410916
 40
0.410916
 40
0.410916
 40
0.410916
 10
32.833138
 20
293.000244
 30
0.0
 10
32.786776
 20
292.992967
 30
0.0
 10
32.695428
 20
292.978628
 30
0.0
 10
32.590171
 20
292.873371
 30
0.0
 10
32.575832
 20
292.782023
 30
0.0
 10
32.568555
 20
292.735661
 30
0.0
 11
32.833138
 21
293.000244
 31
0.0
 11
32.699598
 21
292.964121
 31
0.0
 11
32.604678
 21
292.869201
 31
0.0
 11
32.568555
 21
292.735661
 31
0.0
  0
LWPOLYLINE
  5
10b
100
AcDbEntity
  8
PI
 62
7
100
AcDbPolyline
 90
2
 70
0
 10
32.568555
 20
292.735661
 30
0.0
 10
32.568555
 20
291.264433
 30
0.0
  0
SPLINE
  5
10c
100
AcDbEntity
  8
PI
 62
7
100
AcDbSpline
 70
0
 71
3
 72
10
 73
6
 74
4
 40
0.000000
 40
0.000000
 40
0.000000
 40
0.000000
 40
0.138340
 40
0.272576
 40
0.410916
 40
0.410916
 40
0.410916
 40
0.410916
 10
32.568555
 20
291.264433
 30
0.0
 10
32.561278
 20
291.218071
 30
0.0
 10
32.546939
 20
291.126723
 30
0.0
 10
32.441682
 20
291.021466
 30
0.0
 10
32.350334
 20
291.007127
 30
0.0
 10
32.303972
 20
290.999850
 30
0.0
 11
32.568555
 21
291.264433
 31
0.0
 11
32.532432
 21
291.130893
 31
0.0
 11
32.437512
 21
291.035973
 31
0.0
 11
32.303972
 21
290.999850
 31
0.0
  0
LWPOLYLINE
  5
10d
100
AcDbEntity
  8
PI
 62
7
100
AcDbPolyline
 90
2
 70
0
 10
32.303972
 20
290.999850
 30
0.0
 10
21.017322
 20
290.999850
 30
0.0
  0
SPLINE
  5
10e
100
AcDbEntity
  8
PI
 62
7
100
AcDbSpline
 70
0
 71
3
 72
52
 73
48
 74
46
 40
0.000000
 40
0.000000
 40
0.000000
 40
0.000000
 40
0.152435
 40
0.313038
 40
0.465986
 40
0.670227
 40
0.874458
 40
1.078700
 40
1.199952
 40
1.300146
 40
1.423247
 40
2.512820
 40
3.580406
 40
4.669976
 40
4.839538
 40
5.029324
 40
5.198860
 40
6.329920
 40
7.436649
 40
8.567705
 40
8.737276
 40
8.927066
 40
9.096602
 40
10.075522
 40
11.038064
 40
12.016983
 40
12.141322
 40
12.244246
 40
12.366701
 40
14.354826
 40
16.333382
 40
18.321507
 40
18.491159
 40
18.680990
 40
18.850643
 40
21.034942
 40
23.206612
 40
25.390912
 40
25.506197
 40
25.592089
 40
25.709135
 40
26.811394
 40
27.890964
 40
28.993220
 40
29.162786
 40
29.352574
 40
29.522112
 40
29.522112
 40
29.522112
 40
29.522112
 10
21.017322
 20
290.999850
 30
0.0
 10
20.966626
 20
291.007329
 30
0.0
 10
20.862518
 20
291.022690
 30
0.0
 10
20.727649
 20
291.110011
 30
0.0
 10
20.622698
 20
291.249495
 30
0.0
 10
20.546864
 20
291.420819
 30
0.0
 10
20.448710
 20
291.601326
 30
0.0
 10
20.356955
 20
291.748008
 30
0.0
 10
20.297273
 20
291.886780
 30
0.0
 10
20.357462
 20
292.002742
 30
0.0
 10
20.801102
 20
292.110074
 30
0.0
 10
21.525551
 20
292.344484
 30
0.0
 10
22.295015
 20
293.171783
 30
0.0
 10
22.558013
 20
293.929236
 30
0.0
 10
22.585438
 20
294.411664
 30
0.0
 10
22.585498
 20
294.588084
 30
0.0
 10
22.557709
 20
295.084136
 30
0.0
 10
22.277753
 20
295.873505
 30
0.0
 10
21.461282
 20
296.690159
 30
0.0
 10
20.671979
 20
296.970340
 30
0.0
 10
20.175916
 20
296.998215
 30
0.0
 10
19.999497
 20
296.998160
 30
0.0
 10
19.553863
 20
296.972754
 30
0.0
 10
18.866778
 20
296.750540
 30
0.0
 10
18.081600
 20
296.115275
 30
0.0
 10
17.801762
 20
295.487142
 30
0.0
 10
17.647597
 20
295.098944
 30
0.0
 10
17.523632
 20
295.051808
 30
0.0
 10
16.852405
 20
295.435543
 30
0.0
 10
15.756031
 20
296.187369
 30
0.0
 10
13.828158
 20
296.801305
 30
0.0
 10
12.458166
 20
296.987216
 30
0.0
 10
11.675593
 20
296.999327
 30
0.0
 10
11.499218
 20
296.999366
 30
0.0
 10
10.651275
 20
296.986422
 30
0.0
 10
9.151361
 20
296.774423
 30
0.0
 10
7.054802
 20
296.012166
 30
0.0
 10
5.886922
 20
295.194409
 30
0.0
 10
5.197112
 20
294.689602
 30
0.0
 10
5.082995
 20
294.738831
 30
0.0
 10
5.001577
 20
295.194667
 30
0.0
 10
4.753491
 20
295.913787
 30
0.0
 10
3.929685
 20
296.704263
 30
0.0
 10
3.162254
 20
296.971007
 30
0.0
 10
2.675686
 20
296.998085
 30
0.0
 10
2.499216
 20
296.998910
 30
0.0
 10
2.379717
 20
296.990293
 30
0.0
 10
2.323335
 20
296.986227
 30
0.0
 11
21.017322
 21
290.999850
 31
0.0
 11
20.868437
 21
291.032557
 31
0.0
 11
20.732569
 21
291.118190
 31
0.0
 11
20.637523
 21
291.238021
 31
0.0
 11
20.544297
 21
291.419744
 31
0.0
 11
20.447383
 21
291.599515
 31
0.0
 11
20.346811
 21
291.777280
 31
0.0
 11
20.315227
 21
291.894347
 31
0.0
 11
20.360799
 21
291.983577
 31
0.0
 11
20.474262
 21
292.031324
 31
0.0
 11
21.488119
 21
292.430401
 31
0.0
 11
22.224309
 21
293.203555
 31
0.0
 11
22.573278
 21
294.235729
 31
0.0
 11
22.583550
 21
294.404980
 31
0.0
 11
22.583620
 21
294.594765
 31
0.0
 11
22.573479
 21
294.763998
 31
0.0
 11
22.202854
 21
295.832611
 31
0.0
 11
21.420373
 21
296.615281
 31
0.0
 11
20.351853
 21
296.986163
 31
0.0
 11
20.182587
 21
296.996332
 31
0.0
 11
19.992797
 21
296.996265
 31
0.0
 11
19.823575
 21
296.985960
 31
0.0
 11
18.889393
 21
296.693404
 31
0.0
 11
18.149663
 21
296.077542
 31
0.0
 11
17.692643
 21
295.211854
 31
0.0
 11
17.629441
 21
295.104777
 31
0.0
 11
17.532963
 21
295.068924
 31
0.0
 11
17.418404
 21
295.112183
 31
0.0
 11
15.698030
 21
296.108654
 31
0.0
 11
13.823895
 21
296.742927
 31
0.0
 11
11.851951
 21
296.996066
 31
0.0
 11
11.682321
 21
296.998816
 31
0.0
 11
11.492491
 21
296.998850
 31
0.0
 11
11.322859
 21
296.996163
 31
0.0
 11
9.159076
 21
296.697483
 31
0.0
 11
7.123124
 21
295.941809
 31
0.0
 11
5.288462
 21
294.756405
 31
0.0
 11
5.184025
 21
294.707582
 31
0.0
 11
5.104936
 21
294.741084
 31
0.0
 11
5.062523
 21
294.850175
 31
0.0
 11
4.671450
 21
295.880727
 31
0.0
 11
3.895032
 21
296.630825
 31
0.0
 11
2.851616
 21
296.986141
 31
0.0
 11
2.682358
 21
296.996353
 31
0.0
 11
2.492569
 21
296.996381
 31
0.0
 11
2.323335
 21
296.986227
 31
0.0
  0
SPLINE
  5
10f
100
AcDbEntity
  8
LIG
 62
7
100
AcDbSpline
 70
0
 71
3
 72
16
 73
12
 74
10
 40
0.000000
 40
0.000000
 40
0.000000
 40
0.000000
 40
3.921312
 40
7.726325
 40
11.647637
 40
13.610968
 40
15.558052
 40
17.521383
 40
19.484715
 40
21.431799
 40
23.395130
 40
23.395130
 40
23.395130
 40
23.395130
 10
11.587407
 20
294.499894
 30
0.0
 10
10.265422
 20
294.293502
 30
0.0
 10
7.660658
 20
293.886840
 30
0.0
 10
4.791517
 20
290.904506
 30
0.0
 10
3.911714
 20
287.653338
 30
0.0
 10
4.260633
 20
285.036698
 30
0.0
 10
5.017638
 20
283.207527
 30
0.0
 10
6.222890
 20
281.633743
 30
0.0
 10
7.794521
 20
280.436406
 30
0.0
 10
9.623888
 20
279.649409
 30
0.0
 10
10.931090
 20
279.549792
 30
0.0
 10
11.587407
 20
279.499776
 30
0.0
 11
11.587407
 21
294.499894
 31
0.0
 11
7.802159
 21
293.475893
 31
0.0
 11
5.111608
 21
290.785342
 31
0.0
 11
4.087606
 21
287.000094
 31
0.0
 11
4.344482
 21
285.053639
 31
0.0
 11
5.089530
 21
283.254740
 31
0.0
 11
6.284122
 21
281.696658
 31
0.0
 11
7.842122
 21
280.501958
 31
0.0
 11
9.640970
 21
279.756787
 31
0.0
 11
11.587407
 21
279.499776
 31
0.0
  0
LWPOLYLINE
  5
110
100
AcDbEntity
  8
PI
 62
7
100
AcDbPolyline
 90
1
 70
1
 10
2.323335
 20
296.986227
 30
0.0
  0
SPLINE
  5
111
100
AcDbEntity
  8
LIG
 62
7
100
AcDbSpline
 70
0
 71
3
 72
10
 73
6
 74
4
 40
0.000000
 40
0.000000
 40
0.000000
 40
0.000000
 40
3.073980
 40
6.088707
 40
9.162687
 40
9.162687
 40
9.162687
 40
9.162687
 10
11.587407
 20
279.499776
 30
0.0
 10
12.614673
 20
279.626750
 30
0.0
 10
14.649403
 20
279.878250
 30
0.0
 10
17.277712
 20
281.738231
 30
0.0
 10
18.191689
 20
283.573449
 30
0.0
 10
18.653125
 20
284.499988
 30
0.0
 11
11.587407
 21
279.499776
 31
0.0
 11
14.595748
 21
280.131630
 31
0.0
 11
17.056606
 21
281.873111
 31
0.0
 11
18.653125
 21
284.499988
 31
0.0
  0
LWPOLYLINE
  5
112
100
AcDbEntity
  8
LIG
 62
7
100
AcDbPolyline
 90
4
 70
0
 10
18.653125
 20
284.499988
 30
0.0
 10
31.467330
 20
284.499988
 30
0.0
 10
31.467330
 20
289.500200
 30
0.0
 10
18.658293
 20
289.500200
 30
0.0
  0
SPLINE
  5
113
100
AcDbEntity
  8
LIG
 62
7
100
AcDbSpline
 70
0
 71
3
 72
10
 73
6
 74
4
 40
0.000000
 40
0.000000
 40
0.000000
 40
0.000000
 40
3.075576
 40
6.091812
 40
9.167388
 40
9.167388
 40
9.167388
 40
9.167388
 10
18.658293
 20
289.500200
 30
0.0
 10
18.196486
 20
290.427167
 30
0.0
 10
17.281782
 20
292.263218
 30
0.0
 10
14.651255
 20
294.123215
 30
0.0
 10
12.615301
 20
294.373522
 30
0.0
 10
11.587407
 20
294.499894
 30
0.0
 11
18.658293
 21
289.500200
 31
0.0
 11
17.060467
 21
292.128150
 31
0.0
 11
14.597692
 21
293.869533
 31
0.0
 11
11.587407
 21
294.499894
 31
0.0
  0
LWPOLYLINE
  5
114
100
AcDbEntity
  8
LIG
 62
7
100
AcDbPolyline
 90
1
 70
1
 10
11.587407
 20
294.499894
 30
0.0
  0
ENDSEC
  0
SECTION
  2
OBJECTS
  0
DICTIONARY
  5
C
330
0
100
AcDbDictionary
  3
ACAD_GROUP
350
D
  3
ACAD_MLINESTYLE
350
17
  0
DICTIONARY
  5
D
330
C
100
AcDbDictionary
  0
DICTIONARY
  5
1A
330
C
100
AcDbDictionary
  0
DICTIONARY
  5
17
330
C
100
AcDbDictionary
  3
STANDARD
350
18
  0
DICTIONARY
  5
19
330
C
100
AcDbDictionary
  0
ENDSEC
  0
EOF
